<?xml version="1.0" encoding="UTF-8" standalone="no"?>
<svg
   xmlns:dc="http://purl.org/dc/elements/1.1/"
   xmlns:cc="http://creativecommons.org/ns#"
   xmlns:rdf="http://www.w3.org/1999/02/22-rdf-syntax-ns#"
   xmlns:svg="http://www.w3.org/2000/svg"
   xmlns="http://www.w3.org/2000/svg"
   xmlns:xlink="http://www.w3.org/1999/xlink"
   xmlns:sodipodi="http://sodipodi.sourceforge.net/DTD/sodipodi-0.dtd"
   xmlns:inkscape="http://www.inkscape.org/namespaces/inkscape"
   inkscape:version="1.0 (4035a4fb49, 2020-05-01)"
   sodipodi:docname="drive.svg"
   xml:space="preserve"
   style="enable-background:new 0 0 481.2 481.2;"
   viewBox="0 0 481.2 481.2"
   y="0px"
   x="0px"
   id="Capa_1"
   version="1.1"><metadata
   id="metadata41"><rdf:RDF><cc:Work
       rdf:about=""><dc:format>image/svg+xml</dc:format><dc:type
         rdf:resource="http://purl.org/dc/dcmitype/StillImage" /></cc:Work></rdf:RDF></metadata><defs
   id="defs39"><linearGradient
     id="linearGradient870"
     inkscape:collect="always"><stop
       id="stop866"
       offset="0"
       style="stop-color:#3ca0b2;stop-opacity:1;" /><stop
       id="stop868"
       offset="1"
       style="stop-color:#4bbdd1;stop-opacity:1" /></linearGradient><linearGradient
     gradientUnits="userSpaceOnUse"
     y2="240.6"
     x2="481.2"
     y1="240.6"
     x1="0"
     id="linearGradient872"
     xlink:href="#linearGradient870"
     inkscape:collect="always" /></defs><sodipodi:namedview
   inkscape:current-layer="Capa_1"
   inkscape:window-maximized="1"
   inkscape:window-y="-8"
   inkscape:window-x="-8"
   inkscape:cy="260.38292"
   inkscape:cx="385.80186"
   inkscape:zoom="1.2637403"
   showgrid="false"
   id="namedview37"
   inkscape:window-height="1027"
   inkscape:window-width="1920"
   inkscape:pageshadow="2"
   inkscape:pageopacity="0"
   guidetolerance="10"
   gridtolerance="10"
   objecttolerance="10"
   borderopacity="1"
   bordercolor="#666666"
   pagecolor="#ffffff" />
<g
   style="fill:url(#linearGradient872);fill-opacity:1"
   id="g4">
	<path
   style="fill:url(#linearGradient872);fill-opacity:1"
   id="path2"
   d="M403.9,97.85h-114c-27.7,0-50.3-22.5-50.3-50.3c0-7.5-6-13.5-13.5-13.5H77.3c-42.6,0-77.3,34.7-77.3,77.3v258.5   c0,42.6,34.7,77.3,77.3,77.3h326.6c42.6,0,77.3-34.7,77.3-77.3v-194.8C481.2,132.45,446.5,97.85,403.9,97.85z M454.2,369.75   c0,27.7-22.5,50.3-50.3,50.3H77.3c-27.7,0-50.3-22.5-50.3-50.3v-258.4c0-27.7,22.5-50.3,50.3-50.3h136.5   c6.4,36.2,38.1,63.8,76.1,63.8h114c27.7,0,50.3,22.5,50.3,50.3L454.2,369.75L454.2,369.75z" />
</g>
<g
   id="g6">
</g>
<g
   id="g8">
</g>
<g
   id="g10">
</g>
<g
   id="g12">
</g>
<g
   id="g14">
</g>
<g
   id="g16">
</g>
<g
   id="g18">
</g>
<g
   id="g20">
</g>
<g
   id="g22">
</g>
<g
   id="g24">
</g>
<g
   id="g26">
</g>
<g
   id="g28">
</g>
<g
   id="g30">
</g>
<g
   id="g32">
</g>
<g
   id="g34">
</g>
</svg>
