<?xml version="1.0" encoding="UTF-8" standalone="no"?>
<svg
   xmlns:dc="http://purl.org/dc/elements/1.1/"
   xmlns:cc="http://creativecommons.org/ns#"
   xmlns:rdf="http://www.w3.org/1999/02/22-rdf-syntax-ns#"
   xmlns:svg="http://www.w3.org/2000/svg"
   xmlns="http://www.w3.org/2000/svg"
   xmlns:xlink="http://www.w3.org/1999/xlink"
   xmlns:sodipodi="http://sodipodi.sourceforge.net/DTD/sodipodi-0.dtd"
   xmlns:inkscape="http://www.inkscape.org/namespaces/inkscape"
   inkscape:version="1.0 (4035a4fb49, 2020-05-01)"
   sodipodi:docname="exchanging.svg"
   xml:space="preserve"
   enable-background="new 0 0 512 512"
   viewBox="0 0 512 512"
   y="0px"
   x="0px"
   id="Artwork"
   version="1.1"><metadata
   id="metadata15"><rdf:RDF><cc:Work
       rdf:about=""><dc:format>image/svg+xml</dc:format><dc:type
         rdf:resource="http://purl.org/dc/dcmitype/StillImage" /></cc:Work></rdf:RDF></metadata><defs
   id="defs13"><linearGradient
     id="linearGradient844"
     inkscape:collect="always"><stop
       id="stop840"
       offset="0"
       style="stop-color:#2b9500;stop-opacity:1" /><stop
       id="stop842"
       offset="1"
       style="stop-color:#38c000;stop-opacity:1" /></linearGradient><linearGradient
     gradientUnits="userSpaceOnUse"
     y2="256"
     x2="501"
     y1="256"
     x1="11"
     id="linearGradient846"
     xlink:href="#linearGradient844"
     inkscape:collect="always" /></defs><sodipodi:namedview
   inkscape:current-layer="Artwork"
   inkscape:window-maximized="0"
   inkscape:window-y="0"
   inkscape:window-x="-7"
   inkscape:cy="221.97208"
   inkscape:cx="229.4898"
   inkscape:zoom="0.59385921"
   showgrid="false"
   id="namedview11"
   inkscape:window-height="1018"
   inkscape:window-width="958"
   inkscape:pageshadow="2"
   inkscape:pageopacity="0"
   guidetolerance="10"
   gridtolerance="10"
   objecttolerance="10"
   borderopacity="1"
   bordercolor="#666666"
   pagecolor="#ffffff" />
<g
   style="fill-opacity:1;fill:url(#linearGradient846)"
   id="g8">
	<path
   style="fill-opacity:1;fill:url(#linearGradient846)"
   id="path2"
   d="M324.6,30.8c0-6.8-5.5-12.3-12.3-12.3H199.8c-6.8,0-12.3,5.5-12.3,12.3v44H23.2c-6.8,0-12.2,5.5-12.2,12.3v339.8   c0,6.8,5.5,12.3,12.2,12.3h83.1l-31.1,31.1c-4.8,4.8-4.8,12.5,0,17.3c2.4,2.4,5.5,3.6,8.7,3.6s6.3-1.2,8.7-3.6l52-52   c2.3-2.3,3.6-5.4,3.6-8.7s-1.3-6.4-3.6-8.7l-52-52c-4.8-4.8-12.5-4.8-17.3,0c-4.8,4.8-4.8,12.5,0,17.3l31.1,31.1H35.5V99.4h152v44   c0,6.8,5.5,12.3,12.3,12.3h112.6c6.8,0,12.3-5.5,12.3-12.3V30.8z M300.1,131.2H212V43.1h88.1V131.2z" />
	<path
   style="fill-opacity:1;fill:url(#linearGradient846)"
   id="path4"
   d="M312.4,187.5H199.8c-6.8,0-12.3,5.5-12.3,12.3v112.6c0,6.8,5.5,12.3,12.3,12.3h112.6c6.8,0,12.3-5.5,12.3-12.3V199.7   C324.6,192.9,319.1,187.5,312.4,187.5z M300.1,300H212V212h88.1V300z" />
	<path
   style="fill-opacity:1;fill:url(#linearGradient846)"
   id="path6"
   d="M501,424.9V85.1c0-6.8-5.5-12.3-12.3-12.3h-83l31.1-31.1c4.8-4.8,4.8-12.5,0-17.3c-4.8-4.8-12.5-4.8-17.3,0l-52,52   c-4.8,4.8-4.8,12.5,0,17.3l52,52c2.4,2.4,5.5,3.6,8.7,3.6s6.3-1.2,8.7-3.6c4.8-4.8,4.8-12.5,0-17.3l-31.1-31.1h70.7v315.3H324.6   v-44c0-6.8-5.5-12.3-12.3-12.3H199.8c-6.8,0-12.3,5.5-12.3,12.3v112.6c0,6.8,5.5,12.3,12.3,12.3h112.6c6.8,0,12.3-5.5,12.3-12.3   v-44h164.1C495.5,437.1,501,431.6,501,424.9z M300.1,468.9H212v-88.1h88.1V468.9z" />
</g>
</svg>
