<?xml version="1.0" encoding="UTF-8" standalone="no"?>
<svg
   xmlns:dc="http://purl.org/dc/elements/1.1/"
   xmlns:cc="http://creativecommons.org/ns#"
   xmlns:rdf="http://www.w3.org/1999/02/22-rdf-syntax-ns#"
   xmlns:svg="http://www.w3.org/2000/svg"
   xmlns="http://www.w3.org/2000/svg"
   xmlns:xlink="http://www.w3.org/1999/xlink"
   xmlns:sodipodi="http://sodipodi.sourceforge.net/DTD/sodipodi-0.dtd"
   xmlns:inkscape="http://www.inkscape.org/namespaces/inkscape"
   inkscape:version="1.0 (4035a4fb49, 2020-05-01)"
   sodipodi:docname="timetable.svg"
   xml:space="preserve"
   enable-background="new 0 0 512 512"
   viewBox="0 0 512 512"
   y="0px"
   x="0px"
   id="Artwork"
   version="1.1"><metadata
   id="metadata25"><rdf:RDF><cc:Work
       rdf:about=""><dc:format>image/svg+xml</dc:format><dc:type
         rdf:resource="http://purl.org/dc/dcmitype/StillImage" /></cc:Work></rdf:RDF></metadata><defs
   id="defs23"><linearGradient
     id="linearGradient854"
     inkscape:collect="always"><stop
       id="stop850"
       offset="0"
       style="stop-color:#d06ba0;stop-opacity:1" /><stop
       id="stop852"
       offset="1"
       style="stop-color:#e694bf;stop-opacity:1" /></linearGradient><linearGradient
     gradientUnits="userSpaceOnUse"
     y2="256"
     x2="499.8"
     y1="256"
     x1="12.399551"
     id="linearGradient856"
     xlink:href="#linearGradient854"
     inkscape:collect="always" /></defs><sodipodi:namedview
   inkscape:current-layer="g18"
   inkscape:window-maximized="0"
   inkscape:window-y="205"
   inkscape:window-x="-128"
   inkscape:cy="332.11669"
   inkscape:cx="238.54855"
   inkscape:zoom="0.59385921"
   showgrid="false"
   id="namedview21"
   inkscape:window-height="831"
   inkscape:window-width="1215"
   inkscape:pageshadow="2"
   inkscape:pageopacity="0"
   guidetolerance="10"
   gridtolerance="10"
   objecttolerance="10"
   borderopacity="1"
   bordercolor="#666666"
   pagecolor="#ffffff" />
<g
   id="g18">
	<path
   style="stroke-width:1;fill:url(#linearGradient856);fill-opacity:1"
   id="path2"
   d="m 49.2,453.4 h 413.7 c 20.3,0 36.9,-16.49999 36.9,-36.9 V 95.500001 C 499.8,75.2 483.3,58.6 462.9,58.6 H 49.2 C 28.9,58.6 12.4,75.1 12.4,95.500001 V 416.60001 C 12.3,436.90001 28.9,453.4 49.2,453.4 Z M 462.8,428.9 H 49.2 c -6.8,0 -12.3,-5.49999 -12.3,-12.4 V 175.7 H 475.2 V 416.60001 C 475.2,423.3 469.6,428.9 462.8,428.9 Z M 49.2,83.1 h 413.7 c 6.8,0 12.4,5.5 12.4,12.400001 V 151.2 H 36.8 V 95.500001 C 36.8,88.7 42.4,83.1 49.2,83.1 Z" />
	<path
   style="fill:#c0357e;fill-opacity:1"
   id="path4"
   d="M70.8,129.4c3.2,0,6.4-1.3,8.7-3.6c2.3-2.3,3.6-5.5,3.6-8.7c0-3.2-1.3-6.4-3.6-8.7c-4.6-4.6-12.8-4.6-17.3,0   c-2.3,2.3-3.6,5.4-3.6,8.7c0,3.2,1.3,6.4,3.6,8.7C64.5,128.1,67.6,129.4,70.8,129.4z" />
	<path
   style="fill:#c0357e;fill-opacity:1"
   id="path6"
   d="M117.2,129.4c3.2,0,6.4-1.3,8.7-3.6c2.3-2.3,3.6-5.5,3.6-8.7c0-3.2-1.3-6.4-3.6-8.7c-4.6-4.6-12.8-4.6-17.3,0   c-2.3,2.3-3.6,5.4-3.6,8.7c0,3.2,1.3,6.4,3.6,8.7C110.8,128.1,113.9,129.4,117.2,129.4z" />
	<path
   style="fill:#c0357e;fill-opacity:1"
   id="path8"
   d="M163.4,129.4c3.2,0,6.4-1.3,8.7-3.6c2.3-2.3,3.6-5.5,3.6-8.7c0-3.2-1.3-6.4-3.6-8.7c-4.6-4.6-12.7-4.6-17.3,0   c-2.3,2.3-3.6,5.4-3.6,8.7c0,3.2,1.3,6.4,3.6,8.7C157,128.1,160.2,129.4,163.4,129.4z" />
	<path
   style="fill:#c0357e;fill-opacity:1"
   id="path10"
   d="M429.3,207.6H82.7c-6.8,0-12.3,5.5-12.3,12.3c0,6.8,5.5,12.3,12.3,12.3h346.6c6.8,0,12.3-5.5,12.3-12.3   C441.6,213,436.1,207.6,429.3,207.6z" />
	<path
   style="fill:#c0357e;fill-opacity:1"
   id="path12"
   d="M82.7,287.6h255.4c6.8,0,12.3-5.5,12.3-12.3s-5.5-12.3-12.3-12.3H82.7c-6.8,0-12.3,5.5-12.3,12.3S75.9,287.6,82.7,287.6z" />
	<path
   style="fill:#c0357e;fill-opacity:1"
   id="path14"
   d="M429.3,318.6H82.7c-6.8,0-12.3,5.5-12.3,12.3s5.5,12.3,12.3,12.3h346.6c6.8,0,12.3-5.5,12.3-12.3S436.1,318.6,429.3,318.6z   " />
	<path
   style="fill:#c0357e;fill-opacity:1"
   id="path16"
   d="M256,374.1H82.7c-6.8,0-12.3,5.5-12.3,12.3c0,6.8,5.5,12.3,12.3,12.3H256c6.8,0,12.3-5.5,12.3-12.3   C268.3,379.6,262.8,374.1,256,374.1z" />
</g>
</svg>
