<?xml version="1.0" encoding="UTF-8" standalone="no"?>
<svg
   xmlns:dc="http://purl.org/dc/elements/1.1/"
   xmlns:cc="http://creativecommons.org/ns#"
   xmlns:rdf="http://www.w3.org/1999/02/22-rdf-syntax-ns#"
   xmlns:svg="http://www.w3.org/2000/svg"
   xmlns="http://www.w3.org/2000/svg"
   xmlns:xlink="http://www.w3.org/1999/xlink"
   xmlns:sodipodi="http://sodipodi.sourceforge.net/DTD/sodipodi-0.dtd"
   xmlns:inkscape="http://www.inkscape.org/namespaces/inkscape"
   inkscape:version="1.0 (4035a4fb49, 2020-05-01)"
   sodipodi:docname="users.svg"
   xml:space="preserve"
   style="enable-background:new 0 0 489.4 489.4;"
   viewBox="0 0 489.4 489.4"
   y="0px"
   x="0px"
   id="Capa_1"
   version="1.1"><metadata
   id="metadata49"><rdf:RDF><cc:Work
       rdf:about=""><dc:format>image/svg+xml</dc:format><dc:type
         rdf:resource="http://purl.org/dc/dcmitype/StillImage" /></cc:Work></rdf:RDF></metadata><defs
   id="defs47"><linearGradient
     id="linearGradient878"
     inkscape:collect="always"><stop
       id="stop874"
       offset="0"
       style="stop-color:#eb2e3e;stop-opacity:1" /><stop
       id="stop876"
       offset="1"
       style="stop-color:#f08d96;stop-opacity:1" /></linearGradient><linearGradient
     gradientUnits="userSpaceOnUse"
     y2="244.7"
     x2="424.55"
     y1="244.7"
     x1="64.85"
     id="linearGradient880"
     xlink:href="#linearGradient878"
     inkscape:collect="always" /></defs><sodipodi:namedview
   inkscape:current-layer="Capa_1"
   inkscape:window-maximized="0"
   inkscape:window-y="157"
   inkscape:window-x="47"
   inkscape:cy="290.36476"
   inkscape:cx="134.49754"
   inkscape:zoom="0.43931345"
   showgrid="false"
   id="namedview45"
   inkscape:window-height="705"
   inkscape:window-width="999"
   inkscape:pageshadow="2"
   inkscape:pageopacity="0"
   guidetolerance="10"
   gridtolerance="10"
   objecttolerance="10"
   borderopacity="1"
   bordercolor="#666666"
   pagecolor="#ffffff" />
<g
   style="fill:url(#linearGradient880);fill-opacity:1"
   id="g12">
	<g
   style="fill:url(#linearGradient880);fill-opacity:1"
   id="g10">
		<path
   style="fill:url(#linearGradient880);fill-opacity:1"
   id="path2"
   d="M320.15,125.4c34.6,0,62.7-28.1,62.7-62.7S354.75,0,320.15,0s-62.7,28.1-62.7,62.7C257.45,97.3,285.55,125.4,320.15,125.4    z M320.15,24.5c21.1,0,38.2,17.1,38.2,38.2s-17.1,38.2-38.2,38.2s-38.2-17.1-38.2-38.2S299.05,24.5,320.15,24.5z" />
		<path
   style="fill:url(#linearGradient880);fill-opacity:1"
   id="path4"
   d="M175.55,125.4c34.6,0,62.7-28.1,62.7-62.7S210.15,0,175.55,0s-62.7,28.1-62.7,62.7C112.85,97.3,140.95,125.4,175.55,125.4    z M175.55,24.5c21.1,0,38.2,17.1,38.2,38.2s-17.1,38.2-38.2,38.2s-38.2-17.1-38.2-38.2S154.45,24.5,175.55,24.5z" />
		<path
   style="fill:url(#linearGradient880);fill-opacity:1"
   id="path6"
   d="M391.75,439.7V335c19.9-10.7,32.8-31.7,32.8-54.7v-79.7c0-34.3-27.9-62.2-62.2-62.2h-53.5c-6.8,0-12.3,5.5-12.3,12.3    s5.5,12.3,12.3,12.3h53.5c20.8,0,37.7,16.9,37.7,37.7v79.7c0,15.7-9.9,29.9-24.7,35.3c-4.8,1.8-8,6.4-8,11.5v112.6    c0,13.8-11.2,25-25,25h-56.6c-6.8,0-12.3,5.5-12.3,12.3s5.5,12.3,12.3,12.3h56.6C369.55,489.2,391.75,467,391.75,439.7z" />
		<path
   style="fill:url(#linearGradient880);fill-opacity:1"
   id="path8"
   d="M286.05,200.6c0-34.3-27.9-62.2-62.2-62.2h-96.8c-34.3,0-62.2,27.9-62.2,62.2v79.7c0,23,12.9,44,32.8,54.7v104.7    c0,27.3,22.2,49.5,49.5,49.5h56.6c27.3,0,49.5-22.2,49.5-49.5V335c19.9-10.7,32.8-31.7,32.8-54.7V200.6z M261.55,280.3    c0,15.7-9.9,29.9-24.7,35.3c-4.8,1.8-8,6.4-8,11.5v112.6c0,13.8-11.2,25-25,25h-56.6c-13.8,0-25-11.2-25-25V327.2    c0-5.1-3.2-9.7-8-11.5c-14.8-5.4-24.7-19.6-24.7-35.3v-79.8c0-20.8,16.9-37.7,37.7-37.7h96.8c20.8,0,37.7,16.9,37.7,37.7v79.7    H261.55z" />
	</g>
</g>
<g
   id="g14">
</g>
<g
   id="g16">
</g>
<g
   id="g18">
</g>
<g
   id="g20">
</g>
<g
   id="g22">
</g>
<g
   id="g24">
</g>
<g
   id="g26">
</g>
<g
   id="g28">
</g>
<g
   id="g30">
</g>
<g
   id="g32">
</g>
<g
   id="g34">
</g>
<g
   id="g36">
</g>
<g
   id="g38">
</g>
<g
   id="g40">
</g>
<g
   id="g42">
</g>
</svg>
