<?xml version="1.0" encoding="UTF-8" standalone="no"?>
<svg
   xmlns:dc="http://purl.org/dc/elements/1.1/"
   xmlns:cc="http://creativecommons.org/ns#"
   xmlns:rdf="http://www.w3.org/1999/02/22-rdf-syntax-ns#"
   xmlns:svg="http://www.w3.org/2000/svg"
   xmlns="http://www.w3.org/2000/svg"
   xmlns:sodipodi="http://sodipodi.sourceforge.net/DTD/sodipodi-0.dtd"
   xmlns:inkscape="http://www.inkscape.org/namespaces/inkscape"
   inkscape:version="1.0 (4035a4fb49, 2020-05-01)"
   sodipodi:docname="clock.svg"
   xml:space="preserve"
   style="enable-background:new 0 0 512 512;"
   viewBox="0 0 512 512"
   y="0px"
   x="0px"
   id="Capa_1"
   version="1.1"><metadata
   id="metadata49"><rdf:RDF><cc:Work
       rdf:about=""><dc:format>image/svg+xml</dc:format><dc:type
         rdf:resource="http://purl.org/dc/dcmitype/StillImage" /></cc:Work></rdf:RDF></metadata><defs
   id="defs47" /><sodipodi:namedview
   inkscape:current-layer="Capa_1"
   inkscape:window-maximized="1"
   inkscape:window-y="-8"
   inkscape:window-x="-8"
   inkscape:cy="306.27811"
   inkscape:cx="154.2243"
   inkscape:zoom="0.41992188"
   showgrid="false"
   id="namedview45"
   inkscape:window-height="1027"
   inkscape:window-width="1920"
   inkscape:pageshadow="2"
   inkscape:pageopacity="0"
   guidetolerance="10"
   gridtolerance="10"
   objecttolerance="10"
   borderopacity="1"
   bordercolor="#666666"
   pagecolor="#ffffff" />
<g
   style="fill:#666666;fill-opacity:1"
   id="g6">
	<g
   style="fill:#666666;fill-opacity:1"
   id="g4">
		<path
   style="fill:#666666;fill-opacity:1"
   id="path2"
   d="M347.216,301.211l-71.387-53.54V138.609c0-10.966-8.864-19.83-19.83-19.83c-10.966,0-19.83,8.864-19.83,19.83v118.978    c0,6.246,2.935,12.136,7.932,15.864l79.318,59.489c3.569,2.677,7.734,3.966,11.878,3.966c6.048,0,11.997-2.717,15.884-7.952    C357.766,320.208,355.981,307.775,347.216,301.211z" />
	</g>
</g>
<g
   style="fill:#666666;fill-opacity:1"
   id="g12">
	<g
   style="fill:#666666;fill-opacity:1"
   id="g10">
		<path
   style="fill:#666666;fill-opacity:1"
   id="path8"
   d="M256,0C114.833,0,0,114.833,0,256s114.833,256,256,256s256-114.833,256-256S397.167,0,256,0z M256,472.341    c-119.275,0-216.341-97.066-216.341-216.341S136.725,39.659,256,39.659c119.295,0,216.341,97.066,216.341,216.341    S375.275,472.341,256,472.341z" />
	</g>
</g>
<g
   id="g14">
</g>
<g
   id="g16">
</g>
<g
   id="g18">
</g>
<g
   id="g20">
</g>
<g
   id="g22">
</g>
<g
   id="g24">
</g>
<g
   id="g26">
</g>
<g
   id="g28">
</g>
<g
   id="g30">
</g>
<g
   id="g32">
</g>
<g
   id="g34">
</g>
<g
   id="g36">
</g>
<g
   id="g38">
</g>
<g
   id="g40">
</g>
<g
   id="g42">
</g>
</svg>
