<?xml version="1.0" encoding="UTF-8" standalone="no"?>
<svg
   xmlns:dc="http://purl.org/dc/elements/1.1/"
   xmlns:cc="http://creativecommons.org/ns#"
   xmlns:rdf="http://www.w3.org/1999/02/22-rdf-syntax-ns#"
   xmlns:svg="http://www.w3.org/2000/svg"
   xmlns="http://www.w3.org/2000/svg"
   xmlns:sodipodi="http://sodipodi.sourceforge.net/DTD/sodipodi-0.dtd"
   xmlns:inkscape="http://www.inkscape.org/namespaces/inkscape"
   version="1.1"
   id="Capa_1"
   x="0px"
   y="0px"
   viewBox="0 0 468.293 468.293"
   style="enable-background:new 0 0 468.293 468.293;"
   xml:space="preserve"
   sodipodi:docname="folder.svg"
   inkscape:version="1.0 (4035a4fb49, 2020-05-01)"><metadata
   id="metadata43"><rdf:RDF><cc:Work
       rdf:about=""><dc:format>image/svg+xml</dc:format><dc:type
         rdf:resource="http://purl.org/dc/dcmitype/StillImage" /></cc:Work></rdf:RDF></metadata><defs
   id="defs41" /><sodipodi:namedview
   inkscape:document-rotation="0"
   pagecolor="#ffffff"
   bordercolor="#666666"
   borderopacity="1"
   objecttolerance="10"
   gridtolerance="10"
   guidetolerance="10"
   inkscape:pageopacity="0"
   inkscape:pageshadow="2"
   inkscape:window-width="1920"
   inkscape:window-height="1027"
   id="namedview39"
   showgrid="false"
   inkscape:zoom="1.8364571"
   inkscape:cx="234.1465"
   inkscape:cy="234.1465"
   inkscape:window-x="-8"
   inkscape:window-y="-8"
   inkscape:window-maximized="1"
   inkscape:current-layer="Capa_1" />
<path
   style="fill:#69b5ff;fill-opacity:1"
   d="M443.317,413.9H24.976C11.182,413.9,0,402.718,0,388.924V79.368  c0-13.794,11.182-24.976,24.976-24.976h118.096c9.023,0,17.345,4.867,21.769,12.732l13.773,24.487  c4.423,7.865,12.745,12.732,21.769,12.732h242.936c13.794,0,24.976,11.182,24.976,24.976v259.605  C468.293,402.718,457.111,413.9,443.317,413.9z"
   id="path2" />
<path
   style="fill:#4da7ff;fill-opacity:1"
   d="M24.976,413.9h418.341c13.794,0,24.976-11.182,24.976-24.976V129.32  c0-13.794-11.182-24.976-24.976-24.976H262.782c-9.023,0-17.345,4.867-21.769,12.732l-13.773,24.487  c-4.423,7.865-12.745,12.732-21.769,12.732H24.976C11.182,154.295,0,165.477,0,179.271v209.653C0,402.718,11.182,413.9,24.976,413.9  z"
   id="path4" />
<path
   style="fill:#69b5ff;fill-opacity:1"
   d="M453.559,106.59c1.414,3.132,2.245,6.582,2.245,10.242v259.604c0,13.793-11.182,24.976-24.976,24.976  H12.488c-3.66,0-7.11-0.831-10.242-2.245c3.916,8.671,12.597,14.733,22.73,14.733h418.341c13.794,0,24.976-11.182,24.976-24.976  V129.32C468.293,119.186,462.232,110.506,453.559,106.59z"
   id="path6" />
<g
   id="g8">
</g>
<g
   id="g10">
</g>
<g
   id="g12">
</g>
<g
   id="g14">
</g>
<g
   id="g16">
</g>
<g
   id="g18">
</g>
<g
   id="g20">
</g>
<g
   id="g22">
</g>
<g
   id="g24">
</g>
<g
   id="g26">
</g>
<g
   id="g28">
</g>
<g
   id="g30">
</g>
<g
   id="g32">
</g>
<g
   id="g34">
</g>
<g
   id="g36">
</g>
</svg>
