<?xml version="1.0" encoding="UTF-8" standalone="no"?>
<svg
   xmlns:dc="http://purl.org/dc/elements/1.1/"
   xmlns:cc="http://creativecommons.org/ns#"
   xmlns:rdf="http://www.w3.org/1999/02/22-rdf-syntax-ns#"
   xmlns:svg="http://www.w3.org/2000/svg"
   xmlns="http://www.w3.org/2000/svg"
   xmlns:sodipodi="http://sodipodi.sourceforge.net/DTD/sodipodi-0.dtd"
   xmlns:inkscape="http://www.inkscape.org/namespaces/inkscape"
   inkscape:version="1.0 (4035a4fb49, 2020-05-01)"
   sodipodi:docname="heart-1.svg"
   xml:space="preserve"
   style="enable-background:new 0 0 484.8 484.8;"
   viewBox="0 0 484.8 484.8"
   y="0px"
   x="0px"
   id="Capa_1"
   version="1.1"><metadata
   id="metadata77"><rdf:RDF><cc:Work
       rdf:about=""><dc:format>image/svg+xml</dc:format><dc:type
         rdf:resource="http://purl.org/dc/dcmitype/StillImage" /></cc:Work></rdf:RDF></metadata><defs
   id="defs75" /><sodipodi:namedview
   inkscape:current-layer="Capa_1"
   inkscape:window-maximized="1"
   inkscape:window-y="-8"
   inkscape:window-x="-8"
   inkscape:cy="242.39999"
   inkscape:cx="242.39999"
   inkscape:zoom="1.7739274"
   showgrid="false"
   id="namedview73"
   inkscape:window-height="1027"
   inkscape:window-width="1920"
   inkscape:pageshadow="2"
   inkscape:pageopacity="0"
   guidetolerance="10"
   gridtolerance="10"
   objecttolerance="10"
   borderopacity="1"
   bordercolor="#666666"
   pagecolor="#ffffff" />
<g
   style="fill:#666666;fill-opacity:1"
   id="g40">
	<g
   style="fill:#666666;fill-opacity:1"
   id="g8">
		<g
   style="fill:#666666;fill-opacity:1"
   id="g6">
			<path
   style="fill:#666666;fill-opacity:1"
   id="path2"
   d="M242.4,484.8c133.7,0,242.4-108.8,242.4-242.4C484.8,108.7,376,0,242.4,0C108.7,0,0,108.7,0,242.4     S108.7,484.8,242.4,484.8z M242.4,34.3c114.8,0,208.1,93.4,208.1,208.1c0,114.8-93.4,208.1-208.1,208.1     c-114.8,0-208.1-93.4-208.1-208.1C34.3,127.6,127.6,34.3,242.4,34.3z" />
			<path
   style="fill:#666666;fill-opacity:1"
   id="path4"
   d="M230.1,380.6l0.2,0.2c3.2,3.2,7.6,5.1,12.1,5.1l0,0c4.5,0,8.9-1.8,12.1-5l108.9-108.8c16.1-16.1,24.9-37.4,24.9-60.1     s-8.8-44.1-24.9-60.1c-16-16-37.4-24.9-60-24.9c-22.7,0-44,8.9-60.1,24.9l-0.9,0.9l-1-1c-16.1-16.1-37.5-24.9-60.2-24.9     s-44,8.8-60,24.9c-33.1,33.1-33.1,87,0.1,120.2L230.1,380.6z M145.6,176c9.6-9.6,22.2-14.8,35.7-14.8s26.3,5.3,35.9,14.9     l13.1,13.1c6.7,6.7,17.6,6.7,24.3,0l13-13c9.6-9.6,22.3-14.9,35.9-14.9c13.5,0,26.2,5.3,35.8,14.8c9.6,9.6,14.8,22.3,14.8,35.8     s-5.3,26.3-14.9,35.9l-96.7,96.7l-96.8-96.8c-9.6-9.6-14.9-22.3-14.9-35.8C130.7,198.3,136,185.6,145.6,176z" />
		</g>
	</g>
	<g
   style="fill:#666666;fill-opacity:1"
   id="g10">
	</g>
	<g
   style="fill:#666666;fill-opacity:1"
   id="g12">
	</g>
	<g
   style="fill:#666666;fill-opacity:1"
   id="g14">
	</g>
	<g
   style="fill:#666666;fill-opacity:1"
   id="g16">
	</g>
	<g
   style="fill:#666666;fill-opacity:1"
   id="g18">
	</g>
	<g
   style="fill:#666666;fill-opacity:1"
   id="g20">
	</g>
	<g
   style="fill:#666666;fill-opacity:1"
   id="g22">
	</g>
	<g
   style="fill:#666666;fill-opacity:1"
   id="g24">
	</g>
	<g
   style="fill:#666666;fill-opacity:1"
   id="g26">
	</g>
	<g
   style="fill:#666666;fill-opacity:1"
   id="g28">
	</g>
	<g
   style="fill:#666666;fill-opacity:1"
   id="g30">
	</g>
	<g
   style="fill:#666666;fill-opacity:1"
   id="g32">
	</g>
	<g
   style="fill:#666666;fill-opacity:1"
   id="g34">
	</g>
	<g
   style="fill:#666666;fill-opacity:1"
   id="g36">
	</g>
	<g
   style="fill:#666666;fill-opacity:1"
   id="g38">
	</g>
</g>
<g
   id="g42">
</g>
<g
   id="g44">
</g>
<g
   id="g46">
</g>
<g
   id="g48">
</g>
<g
   id="g50">
</g>
<g
   id="g52">
</g>
<g
   id="g54">
</g>
<g
   id="g56">
</g>
<g
   id="g58">
</g>
<g
   id="g60">
</g>
<g
   id="g62">
</g>
<g
   id="g64">
</g>
<g
   id="g66">
</g>
<g
   id="g68">
</g>
<g
   id="g70">
</g>
</svg>
