<?xml version="1.0" encoding="UTF-8" standalone="no"?>
<svg
   xmlns:dc="http://purl.org/dc/elements/1.1/"
   xmlns:cc="http://creativecommons.org/ns#"
   xmlns:rdf="http://www.w3.org/1999/02/22-rdf-syntax-ns#"
   xmlns:svg="http://www.w3.org/2000/svg"
   xmlns="http://www.w3.org/2000/svg"
   xmlns:sodipodi="http://sodipodi.sourceforge.net/DTD/sodipodi-0.dtd"
   xmlns:inkscape="http://www.inkscape.org/namespaces/inkscape"
   inkscape:version="1.0 (4035a4fb49, 2020-05-01)"
   sodipodi:docname="next-2.svg"
   xml:space="preserve"
   style="enable-background:new 0 0 490.333 490.333;"
   viewBox="0 0 490.333 490.333"
   y="0px"
   x="0px"
   id="Capa_1"
   version="1.1"><metadata
   id="metadata75"><rdf:RDF><cc:Work
       rdf:about=""><dc:format>image/svg+xml</dc:format><dc:type
         rdf:resource="http://purl.org/dc/dcmitype/StillImage" /></cc:Work></rdf:RDF></metadata><defs
   id="defs73" /><sodipodi:namedview
   inkscape:current-layer="Capa_1"
   inkscape:window-maximized="1"
   inkscape:window-y="-8"
   inkscape:window-x="-8"
   inkscape:cy="245.1665"
   inkscape:cx="245.1665"
   inkscape:zoom="1.7539101"
   showgrid="false"
   id="namedview71"
   inkscape:window-height="1027"
   inkscape:window-width="1920"
   inkscape:pageshadow="2"
   inkscape:pageopacity="0"
   guidetolerance="10"
   gridtolerance="10"
   objecttolerance="10"
   borderopacity="1"
   bordercolor="#666666"
   pagecolor="#ffffff" />
<g
   style="fill:#666666;fill-opacity:1"
   id="g38">
	<g
   style="fill:#666666;fill-opacity:1"
   id="g6">
		<g
   style="fill:#666666;fill-opacity:1"
   id="g4">
			<path
   style="fill:#666666;fill-opacity:1"
   id="path2"
   d="M0.133,438.672c0,7.8,5.2,14.6,12.8,16.6c1.5,0.4,2.9,0.6,4.4,0.6c6.1,0,11.8-3.2,14.9-8.7     c70-123.5,127.9-131.3,210.8-131.8v88.4c0,6.6,3.8,12.7,9.8,15.5c6,2.8,13.1,1.9,18.2-2.3l213.1-176.3c3.9-3.3,6.2-8.1,6.2-13.2     c0-5.1-2.3-10-6.2-13.2l-213.1-175.9c-5.1-4.2-12.2-5.1-18.2-2.3c-6,2.8-9.8,8.9-9.8,15.5v88.9c-103,4.6-173.9,41.8-211.2,110.7     c-32.3,59.8-32,130.3-31.8,176.9C0.133,431.672,0.133,435.272,0.133,438.672z M260.333,174.372c9.4-0.1,17-7.7,17-17.2v-69.1     l169,139.4l-169.1,139.8v-69.2c0-4.5-1.8-8.9-5-12.1s-7.6-5-12.1-5l0,0c-92.6,0-157.3,5.4-225,98     C39.433,287.672,69.333,176.272,260.333,174.372z" />
		</g>
	</g>
	<g
   style="fill:#666666;fill-opacity:1"
   id="g8">
	</g>
	<g
   style="fill:#666666;fill-opacity:1"
   id="g10">
	</g>
	<g
   style="fill:#666666;fill-opacity:1"
   id="g12">
	</g>
	<g
   style="fill:#666666;fill-opacity:1"
   id="g14">
	</g>
	<g
   style="fill:#666666;fill-opacity:1"
   id="g16">
	</g>
	<g
   style="fill:#666666;fill-opacity:1"
   id="g18">
	</g>
	<g
   style="fill:#666666;fill-opacity:1"
   id="g20">
	</g>
	<g
   style="fill:#666666;fill-opacity:1"
   id="g22">
	</g>
	<g
   style="fill:#666666;fill-opacity:1"
   id="g24">
	</g>
	<g
   style="fill:#666666;fill-opacity:1"
   id="g26">
	</g>
	<g
   style="fill:#666666;fill-opacity:1"
   id="g28">
	</g>
	<g
   style="fill:#666666;fill-opacity:1"
   id="g30">
	</g>
	<g
   style="fill:#666666;fill-opacity:1"
   id="g32">
	</g>
	<g
   style="fill:#666666;fill-opacity:1"
   id="g34">
	</g>
	<g
   style="fill:#666666;fill-opacity:1"
   id="g36">
	</g>
</g>
<g
   id="g40">
</g>
<g
   id="g42">
</g>
<g
   id="g44">
</g>
<g
   id="g46">
</g>
<g
   id="g48">
</g>
<g
   id="g50">
</g>
<g
   id="g52">
</g>
<g
   id="g54">
</g>
<g
   id="g56">
</g>
<g
   id="g58">
</g>
<g
   id="g60">
</g>
<g
   id="g62">
</g>
<g
   id="g64">
</g>
<g
   id="g66">
</g>
<g
   id="g68">
</g>
</svg>
