<?xml version="1.0" encoding="UTF-8" standalone="no"?>
<svg
   xmlns:dc="http://purl.org/dc/elements/1.1/"
   xmlns:cc="http://creativecommons.org/ns#"
   xmlns:rdf="http://www.w3.org/1999/02/22-rdf-syntax-ns#"
   xmlns:svg="http://www.w3.org/2000/svg"
   xmlns="http://www.w3.org/2000/svg"
   xmlns:sodipodi="http://sodipodi.sourceforge.net/DTD/sodipodi-0.dtd"
   xmlns:inkscape="http://www.inkscape.org/namespaces/inkscape"
   inkscape:version="1.0 (4035a4fb49, 2020-05-01)"
   sodipodi:docname="picture.svg"
   xml:space="preserve"
   style="enable-background:new 0 0 489.4 489.4;"
   viewBox="0 0 489.4 489.4"
   y="0px"
   x="0px"
   id="Capa_1"
   version="1.1"><metadata
   id="metadata45"><rdf:RDF><cc:Work
       rdf:about=""><dc:format>image/svg+xml</dc:format><dc:type
         rdf:resource="http://purl.org/dc/dcmitype/StillImage" /></cc:Work></rdf:RDF></metadata><defs
   id="defs43" /><sodipodi:namedview
   inkscape:current-layer="Capa_1"
   inkscape:window-maximized="1"
   inkscape:window-y="-8"
   inkscape:window-x="-8"
   inkscape:cy="244.7"
   inkscape:cx="244.7"
   inkscape:zoom="1.7572538"
   showgrid="false"
   id="namedview41"
   inkscape:window-height="1027"
   inkscape:window-width="1920"
   inkscape:pageshadow="2"
   inkscape:pageopacity="0"
   guidetolerance="10"
   gridtolerance="10"
   objecttolerance="10"
   borderopacity="1"
   bordercolor="#666666"
   pagecolor="#ffffff" />
<g
   style="fill:#666666;fill-opacity:1"
   id="g8">
	<g
   style="fill:#666666;fill-opacity:1"
   id="g6">
		<path
   style="fill:#666666;fill-opacity:1"
   id="path2"
   d="M0,437.8c0,28.5,23.2,51.6,51.6,51.6h386.2c28.5,0,51.6-23.2,51.6-51.6V51.6c0-28.5-23.2-51.6-51.6-51.6H51.6    C23.1,0,0,23.2,0,51.6C0,51.6,0,437.8,0,437.8z M437.8,464.9H51.6c-14.9,0-27.1-12.2-27.1-27.1v-64.5l92.8-92.8l79.3,79.3    c4.8,4.8,12.5,4.8,17.3,0l143.2-143.2l107.8,107.8v113.4C464.9,452.7,452.7,464.9,437.8,464.9z M51.6,24.5h386.2    c14.9,0,27.1,12.2,27.1,27.1v238.1l-99.2-99.1c-4.8-4.8-12.5-4.8-17.3,0L205.2,333.8l-79.3-79.3c-4.8-4.8-12.5-4.8-17.3,0    l-84.1,84.1v-287C24.5,36.7,36.7,24.5,51.6,24.5z" />
		<path
   style="fill:#666666;fill-opacity:1"
   id="path4"
   d="M151.7,196.1c34.4,0,62.3-28,62.3-62.3s-28-62.3-62.3-62.3s-62.3,28-62.3,62.3S117.3,196.1,151.7,196.1z M151.7,96    c20.9,0,37.8,17,37.8,37.8s-17,37.8-37.8,37.8s-37.8-17-37.8-37.8S130.8,96,151.7,96z" />
	</g>
</g>
<g
   id="g10">
</g>
<g
   id="g12">
</g>
<g
   id="g14">
</g>
<g
   id="g16">
</g>
<g
   id="g18">
</g>
<g
   id="g20">
</g>
<g
   id="g22">
</g>
<g
   id="g24">
</g>
<g
   id="g26">
</g>
<g
   id="g28">
</g>
<g
   id="g30">
</g>
<g
   id="g32">
</g>
<g
   id="g34">
</g>
<g
   id="g36">
</g>
<g
   id="g38">
</g>
</svg>
