<?xml version="1.0" encoding="UTF-8" standalone="no"?>
<svg
   xmlns:dc="http://purl.org/dc/elements/1.1/"
   xmlns:cc="http://creativecommons.org/ns#"
   xmlns:rdf="http://www.w3.org/1999/02/22-rdf-syntax-ns#"
   xmlns:svg="http://www.w3.org/2000/svg"
   xmlns="http://www.w3.org/2000/svg"
   xmlns:sodipodi="http://sodipodi.sourceforge.net/DTD/sodipodi-0.dtd"
   xmlns:inkscape="http://www.inkscape.org/namespaces/inkscape"
   version="1.1"
   id="Capa_1"
   x="0px"
   y="0px"
   width="45.583px"
   height="45.583px"
   viewBox="0 0 45.583 45.583"
   style="enable-background:new 0 0 45.583 45.583;"
   xml:space="preserve"
   sodipodi:docname="vertical-dots.svg"
   inkscape:version="1.0 (4035a4fb49, 2020-05-01)"><metadata
   id="metadata47"><rdf:RDF><cc:Work
       rdf:about=""><dc:format>image/svg+xml</dc:format><dc:type
         rdf:resource="http://purl.org/dc/dcmitype/StillImage" /></cc:Work></rdf:RDF></metadata><defs
   id="defs45" /><sodipodi:namedview
   inkscape:document-rotation="0"
   pagecolor="#ffffff"
   bordercolor="#666666"
   borderopacity="1"
   objecttolerance="10"
   gridtolerance="10"
   guidetolerance="10"
   inkscape:pageopacity="0"
   inkscape:pageshadow="2"
   inkscape:window-width="1920"
   inkscape:window-height="1027"
   id="namedview43"
   showgrid="false"
   inkscape:zoom="9.1810543"
   inkscape:cx="-5.3643589"
   inkscape:cy="27.909339"
   inkscape:window-x="-8"
   inkscape:window-y="-8"
   inkscape:window-maximized="1"
   inkscape:current-layer="g10" />
<g
   id="g10"
   style="fill:#666666">
	
<g
   transform="matrix(0.75,0,0,0.75,5.697875,5.697875)"
   id="g8"
   style="fill:#666666;stroke-width:1.33333">
		<path
   d="m 22.793,12.196 c -3.361,0 -6.078,-2.729 -6.078,-6.099 C 16.715,2.73 19.432,0 22.793,0 c 3.353,0 6.073,2.729 6.073,6.097 0,3.369 -2.721,6.099 -6.073,6.099 z"
   id="path2"
   style="fill:#666666;stroke-width:1.33333" />
		<path
   d="m 22.794,28.889 c -3.361,0 -6.079,-2.729 -6.079,-6.099 0,-3.366 2.717,-6.099 6.078,-6.099 3.353,0 6.073,2.732 6.075,6.099 -0.002,3.372 -2.724,6.099 -6.074,6.099 z"
   id="path4"
   style="fill:#666666;stroke-width:1.33333" />
		<path
   d="m 22.794,45.583 c -3.361,0 -6.079,-2.729 -6.079,-6.099 0,-3.37 2.717,-6.098 6.078,-6.098 3.353,-0.002 6.073,2.729 6.073,6.098 0,3.369 -2.722,6.099 -6.072,6.099 z"
   id="path6"
   style="fill:#666666;stroke-width:1.33333" />
	</g></g>
<g
   id="g12">
</g>
<g
   id="g14">
</g>
<g
   id="g16">
</g>
<g
   id="g18">
</g>
<g
   id="g20">
</g>
<g
   id="g22">
</g>
<g
   id="g24">
</g>
<g
   id="g26">
</g>
<g
   id="g28">
</g>
<g
   id="g30">
</g>
<g
   id="g32">
</g>
<g
   id="g34">
</g>
<g
   id="g36">
</g>
<g
   id="g38">
</g>
<g
   id="g40">
</g>
</svg>
